<svg width="1200" height="1200" viewBox="0 0 1200 1200" fill="none" xmlns="http://www.w3.org/2000/svg">
<path d="M600 0C268.629 0 0 268.629 0 600C0 931.371 268.629 1200 600 1200C931.371 1200 1200 931.371 1200 600C1200 268.629 931.371 0 600 0ZM600 203.247C765.185 203.247 899.121 337.184 899.121 502.368C899.121 552.405 885.41 618.459 857.225 655.809L600 996.753L342.773 655.811C311.744 614.688 300.878 557.612 300.878 502.37C300.879 337.184 434.815 203.247 600 203.247ZM600 376.538C530.497 376.538 474.17 432.865 474.17 502.368C474.17 571.871 530.497 628.198 600 628.198C669.503 628.198 725.83 571.871 725.83 502.368C725.83 432.865 669.503 376.538 600 376.538Z" fill="#B86D3D"/>
</svg>
