<svg width="1200" height="1200" viewBox="0 0 1200 1200" fill="none" xmlns="http://www.w3.org/2000/svg">
<path d="M600 0C268.629 0 0 268.629 0 600C0 931.371 268.629 1200 600 1200C931.371 1200 1200 931.371 1200 600C1200 268.629 931.371 0 600 0ZM384.375 238.33C396.737 237.601 407.911 244.99 416.382 258.105L498.413 413.671C507.05 432.105 502.142 451.843 489.258 465.014L451.685 502.587C449.366 505.765 447.84 509.344 447.803 513.28C462.212 569.055 505.92 620.503 544.484 655.883C583.046 691.263 624.493 739.164 678.296 750.512C684.946 752.367 693.093 753.032 697.852 748.609L741.504 704.151C756.572 692.73 778.37 687.195 794.458 696.534H795.19L943.211 783.912C964.939 797.531 967.19 823.856 951.634 839.869L849.683 941.016C834.627 956.456 814.625 961.647 795.192 961.67C709.244 959.095 628.034 916.911 561.33 873.56C451.84 793.907 351.407 695.114 288.355 575.757C264.173 525.707 235.766 461.847 238.477 405.983C238.719 384.967 244.405 364.378 259.205 350.832L361.158 248.879C369.1 242.121 376.957 238.768 384.375 238.33V238.33Z" fill="#B86D3D"/>
</svg>
